<?xml version="1.0" encoding="utf-8"?>
<!-- Generator: Adobe Illustrator 16.0.3, SVG Export Plug-In . SVG Version: 6.00 Build 0)  -->
<!DOCTYPE svg PUBLIC "-//W3C//DTD SVG 1.1//EN" "http://www.w3.org/Graphics/SVG/1.1/DTD/svg11.dtd">
<svg version="1.1" id="Capa_1" xmlns="http://www.w3.org/2000/svg" xmlns:xlink="http://www.w3.org/1999/xlink" x="0px" y="0px"
	 width="612px" height="792px" viewBox="0 0 612 792" enable-background="new 0 0 612 792" xml:space="preserve">
<g id="freepik--background-complete--inject-3">
	<path fill="#F5F5F5" d="M239.035,152.889c0.636-4.565-5.827-8.323-10.673-8.715c-2.313-0.196-4.712,0.159-6.903-0.6
		c-4.737-1.652-6.634-7.784-11.273-9.792c-3.464-1.456-7.442-0.159-10.795,1.53c-3.354,1.689-6.683,3.819-10.429,4.063
		c-3.256,0.208-6.805-1.003-9.657,0.588c-2.13,1.224-3.244,3.672-5.202,5.08c-2.038,1.26-4.397,1.902-6.793,1.848
		c-2.389-0.065-4.768,0.321-7.014,1.138c-2.167,0.992-3.954,3.292-3.5,5.63L239.035,152.889z"/>
	<path fill="#EBEBEB" d="M564.02,423.038c1.053-7.601-9.683-13.855-17.748-14.505c-3.844-0.318-7.834,0.27-11.481-1.003
		c-7.883-2.742-11.016-12.938-18.739-16.194c-5.753-2.448-12.387-0.257-17.969,2.546c-5.581,2.803-11.089,6.34-17.332,6.745
		c-5.422,0.342-11.31-1.665-16.059,0.991c-3.537,1.971-5.386,6.046-8.642,8.446c-3.256,2.398-7.344,2.852-11.31,3.071
		c-3.966,0.221-8.054,0.245-11.652,1.897s-6.585,5.459-5.839,9.352L564.02,423.038z"/>
	<path fill="#F5F5F5" d="M155.938,237.529c0.796-5.814-7.417-10.6-13.586-11.102c-2.938-0.233-5.985,0.22-8.776-0.759
		c-6.034-2.105-8.446-9.902-14.345-12.387c-4.395-1.86-9.474-0.196-13.746,1.946c-4.272,2.142-8.482,4.896-13.256,5.165
		c-4.149,0.257-8.654-1.224-12.24,0.747c-2.705,1.518-4.112,4.627-6.609,6.463s-5.618,2.191-8.654,2.35s-6.12,0.196-8.911,1.457
		s-5.031,4.174-4.468,7.148L155.938,237.529z"/>
	<polygon fill="#E0E0E0" points="480.873,554.361 453.639,672.6 465.156,672.563 492.439,555.475 	"/>
	<polygon fill="#E0E0E0" points="530.543,554.361 557.875,672.6 568.817,672.6 542.379,554.361 	"/>
	<polygon fill="#E0E0E0" points="462.488,465.56 477.996,546.968 495.609,546.968 479.049,465.56 	"/>
	<polygon fill="#E0E0E0" points="192.438,554.361 170.222,672.6 181.531,672.6 204.738,554.361 	"/>
	<polygon fill="#E0E0E0" points="239.145,554.361 264.531,671.951 275.706,671.951 251.189,554.361 	"/>
	<polygon fill="#E0E0E0" points="174.053,465.56 189.561,546.968 207.174,546.968 190.613,465.56 	"/>
	<polygon fill="#EBEBEB" points="139.169,458.167 142.339,472.965 496.136,472.965 492.012,458.167 	"/>
	<polygon fill="#EBEBEB" points="145.925,486.906 149.671,501.705 501.069,501.705 497.874,486.906 	"/>
	<polygon fill="#EBEBEB" points="152.915,516.662 156.391,531.46 506.712,531.46 503.395,516.662 	"/>
	<rect x="179.695" y="546.968" fill="#EBEBEB" width="377.764" height="14.799"/>
	<path fill="#EBEBEB" d="M404.385,363.687c-9.193,0.003-16.648-7.447-16.652-16.641c-0.001-2.91,0.761-5.769,2.21-8.292
		l47.735-83.232c2.933-5.186,8.438-8.383,14.395-8.36l0,0c5.938-0.035,11.437,3.125,14.395,8.274l48.226,82.95
		c4.617,7.958,1.908,18.152-6.05,22.769c-2.521,1.463-5.381,2.238-8.296,2.25l-95.949,0.294L404.385,363.687z M452.121,252.119
		L452.121,252.119c-4.181-0.013-8.043,2.234-10.098,5.875l-47.736,83.232c-3.211,5.593-1.28,12.729,4.313,15.94
		c1.769,1.015,3.771,1.55,5.81,1.55l0,0l95.95-0.293c6.448-0.039,11.645-5.298,11.605-11.747c-0.012-2.021-0.549-4.005-1.557-5.756
		l-48.226-82.938c-2.054-3.629-5.904-5.87-10.074-5.863H452.121z"/>
	<path fill="#EBEBEB" d="M442.745,288.129l2.24,31.053c0.177,2.536,2.222,4.54,4.761,4.664l0,0c2.681,0.138,4.999-1.847,5.276-4.517
		l3.182-31.249c0.217-2.18-1.374-4.122-3.554-4.339c-0.157-0.016-0.315-0.022-0.473-0.019l-7.577,0.171
		c-2.183,0.049-3.913,1.858-3.864,4.041C442.737,287.999,442.74,288.064,442.745,288.129z"/>
	<path fill="#EBEBEB" d="M458.131,341.25c-1.288,3.981-5.56,6.165-9.541,4.876s-6.164-5.56-4.876-9.541
		c1.285-3.974,5.544-6.157,9.521-4.883c3.984,1.277,6.179,5.543,4.902,9.528C458.135,341.237,458.133,341.244,458.131,341.25z"/>
</g>
<g id="freepik--Floor--inject-3">
	<path fill="#263238" d="M575.048,672.452c0,0.172-120.467,0.318-269.035,0.318c-148.57,0-269.06-0.146-269.06-0.318
		c0-0.171,120.441-0.317,269.06-0.317C454.63,672.135,575.048,672.269,575.048,672.452z"/>
</g>
<g id="freepik--Device--inject-3">
	<path fill="#263238" d="M388.645,541.142l-123.624-0.085c-14.859,0-26.928-12.669-26.928-28.287V187.186
		c0-15.618,12.069-28.287,26.928-28.274l123.563,0.073c14.872,0,26.929,12.668,26.929,28.287l-0.062,325.584
		C415.572,528.485,403.516,541.142,388.645,541.142z"/>
	<path fill="#FFFFFF" d="M388.607,170.515h-23.966c-3.366,0.165-5.966,3.022-5.813,6.389v4.566c0.152,3.372-2.455,6.23-5.826,6.389
		h-46.696c-3.372-0.165-5.973-3.029-5.813-6.402v-4.553c0.152-3.367-2.447-6.224-5.814-6.389h-29.376
		c-10.416,0-18.862,8.874-18.862,19.816v317.775c0,10.93,8.434,19.804,18.837,19.816l123.33,0.073
		c10.417,0,18.862-8.861,18.862-19.805l-0.024-317.823C407.445,179.352,399.024,170.515,388.607,170.515z"/>
	<path fill="#E0E0E0" d="M280.051,497.923v7.772c-0.003,0.473-0.389,0.854-0.862,0.852c-0.159-0.001-0.313-0.046-0.448-0.13
		l-6.12-3.893c-0.399-0.254-0.516-0.784-0.261-1.183c0.067-0.105,0.156-0.194,0.261-0.262l6.12-3.892
		c0.401-0.251,0.93-0.128,1.18,0.274C280.008,497.601,280.053,497.76,280.051,497.923z"/>
	<path fill="#E0E0E0" d="M330.309,501.729c-0.007,2.961-2.412,5.355-5.373,5.349s-5.355-2.413-5.35-5.373
		c0.007-2.956,2.405-5.35,5.361-5.35C327.91,496.362,330.309,498.767,330.309,501.729z"/>
	<path fill="#E0E0E0" d="M371.104,497.054h5.313c1.264,0,2.289,1.024,2.289,2.289v5.336c0,1.265-1.025,2.289-2.289,2.289h-5.313
		c-1.264,0-2.289-1.024-2.289-2.289v-5.336C368.815,498.078,369.841,497.054,371.104,497.054z"/>
	<circle fill="#F5F5F5" cx="327.359" cy="310.909" r="60.882"/>
	<path fill="#455A64" d="M330.076,337.713c-0.007,2.778-2.265,5.025-5.043,5.019s-5.025-2.265-5.019-5.043s2.265-5.025,5.043-5.018
		c0.004,0,0.008,0,0.013,0C327.841,332.69,330.076,334.942,330.076,337.713z"/>
	<path fill="#455A64" d="M314.996,331.25c5.24-5.641,14.062-5.966,19.703-0.726c0.16,0.148,0.316,0.301,0.469,0.457
		c2.57,2.595,6.585-1.383,4.015-3.978c-7.651-7.711-20.105-7.759-27.817-0.108c-0.112,0.112-0.225,0.226-0.335,0.341
		c-2.509,2.631,1.469,6.658,3.99,4.015H314.996z"/>
	<path fill="#455A64" d="M297.909,307.872c7.65-6.61,16.781-10.771,27.002-10.796c10.202-0.146,20.075,3.611,27.601,10.502
		c2.645,2.448,6.671-1.481,4.015-3.978c-8.578-7.945-19.862-12.322-31.555-12.24c-11.763,0-22.215,4.896-31.016,12.448
		c-2.754,2.387,1.224,6.39,3.99,4.015L297.909,307.872z"/>
	<path fill="#455A64" d="M304.653,320.81c10.195-11.378,27.684-12.337,39.063-2.142c0.558,0.5,1.096,1.023,1.611,1.567
		c2.546,2.607,6.561-1.371,4.015-3.99c-12.726-13.3-33.823-13.766-47.123-1.04c-0.536,0.513-1.055,1.043-1.556,1.59
		C298.216,319.463,302.169,323.49,304.653,320.81z"/>
	<circle fill="#FF725E" cx="357.377" cy="294.52" r="15.435"/>
	
		<rect x="356.193" y="287.078" transform="matrix(-0.707 -0.7072 0.7072 -0.707 402.7538 754.8768)" fill="#FFFFFF" width="3.097" height="13.868"/>
	
		<rect x="356.198" y="287.067" transform="matrix(-0.707 0.7072 -0.7072 -0.707 818.5967 248.8746)" fill="#FFFFFF" width="3.097" height="13.868"/>
	<path fill="#E0E0E0" d="M323.271,204.505c0.767-0.46,1.589-0.818,2.448-1.065l0.502-2.448l4.075-0.073l0.588,2.448
		c0.855,0.217,1.679,0.546,2.448,0.979l2.044-1.371l2.938,2.84l-1.285,2.105c0.46,0.766,0.818,1.589,1.065,2.448l2.447,0.502
		l0.073,4.088l-2.447,0.575c-0.213,0.855-0.538,1.679-0.967,2.448l1.346,2.056l-2.827,2.938l-2.105-1.224
		c-0.767,0.456-1.59,0.81-2.448,1.053l-0.501,2.448l-4.076,0.073L326,222.877c-0.854-0.219-1.678-0.548-2.448-0.979l-2.068,1.346
		l-2.938-2.828l1.285-2.105c-0.462-0.765-0.819-1.588-1.064-2.448l-2.448-0.501l-0.073-4.076l2.448-0.587
		c0.215-0.854,0.539-1.677,0.967-2.448l-1.347-2.068l2.84-2.925l2.105,1.224L323.271,204.505z M325.438,209.952
		c-1.682,1.741-1.634,4.515,0.107,6.196c1.74,1.681,4.515,1.633,6.196-0.107c1.681-1.741,1.633-4.515-0.108-6.196
		c-0.001,0-0.001-0.001-0.002-0.002C329.89,208.163,327.117,208.212,325.438,209.952z"/>
	<path fill="#263238" d="M271.508,213.624c-1.224,0-2.925,0-4.553,0c-1.946,0-3.893,0-5.251,0l0,0c-0.338,0-0.612-0.274-0.612-0.612
		c-0.007-0.332,0.256-0.605,0.587-0.612c0.004,0,0.008,0,0.013,0c1.358,0,3.329,0,5.288,0s3.892,0.074,5.251,0l0,0
		c0.331-0.007,0.605,0.256,0.612,0.587c0,0.004,0,0.008,0,0.013c0.007,0.338-0.262,0.617-0.6,0.624l0,0H271.508z"/>
	<path fill="#263238" d="M265.424,217.737c-0.173-0.003-0.337-0.079-0.453-0.208l-3.672-4.198c-0.207-0.239-0.207-0.593,0-0.832
		l3.672-3.819c0.215-0.261,0.601-0.298,0.861-0.083c0.261,0.215,0.298,0.601,0.083,0.861c-0.019,0.023-0.04,0.045-0.063,0.065
		l-3.244,3.415l3.354,3.782c0.223,0.254,0.198,0.641-0.056,0.864c-0.113,0.099-0.259,0.153-0.409,0.152H265.424z"/>
	<circle fill="#263238" cx="391.595" cy="208.165" r="1.897"/>
	<path fill="#263238" d="M393.491,214.163c0.007,1.055-0.843,1.915-1.896,1.921c-1.055,0.007-1.915-0.842-1.922-1.897
		s0.843-1.915,1.897-1.921c0.008,0,0.016,0,0.024,0C392.643,212.266,393.491,213.115,393.491,214.163z"/>
	<circle fill="#263238" cx="391.595" cy="220.16" r="1.897"/>
	<path fill="#263238" d="M286.122,394.642c-2.885,0.314-5.79,0.421-8.69,0.318c-2.896,0.103-5.797-0.003-8.678-0.318
		c2.881-0.315,5.781-0.421,8.678-0.318C280.333,394.22,283.237,394.327,286.122,394.642z"/>
	<path fill="#263238" d="M317.298,414.96c0,0.171-10.674,0.317-23.832,0.317c-13.158,0-23.832-0.146-23.832-0.317
		s10.661-0.318,23.832-0.318S317.298,414.789,317.298,414.96z"/>
	<path fill="#263238" d="M317.298,435.168c0,0.172-10.674,0.318-23.832,0.318c-13.158,0-23.832-0.146-23.832-0.318
		c0-0.171,10.661-0.318,23.832-0.318S317.298,434.972,317.298,435.168z"/>
	<path fill="#EBEBEB" d="M362.867,407.334h17.43c4.211,0,7.625,3.412,7.625,7.619l0,0c0,4.209-3.414,7.62-7.625,7.62h-17.43
		c-4.212,0-7.626-3.411-7.626-7.62l0,0C355.241,410.746,358.655,407.334,362.867,407.334z"/>
	<path fill="#E0E0E0" d="M369.158,414.96c0,3.528-2.86,6.389-6.389,6.389c-3.529,0-6.39-2.86-6.39-6.389s2.86-6.39,6.39-6.39
		C366.298,408.57,369.158,411.432,369.158,414.96L369.158,414.96z"/>
	<path fill="#EBEBEB" d="M380.309,442.769h-17.441c-4.212,0-7.626-3.414-7.626-7.625l0,0l0,0c0-4.212,3.414-7.626,7.626-7.626l0,0
		h17.441c4.212,0,7.626,3.414,7.626,7.626l0,0l0,0C387.935,439.354,384.521,442.769,380.309,442.769L380.309,442.769z"/>
	<circle fill="#E0E0E0" cx="362.77" cy="435.144" r="6.39"/>
	<path fill="#263238" d="M317.298,455.462c0,0.184-10.674,0.318-23.832,0.318c-13.158,0-23.832-0.135-23.832-0.318
		s10.661-0.318,23.832-0.318S317.298,455.291,317.298,455.462z"/>
	<path fill="#EBEBEB" d="M380.309,465.34h-17.441c-4.205,0.007-7.619-3.396-7.626-7.602c0-0.004,0-0.008,0-0.012l0,0
		c0-4.212,3.414-7.626,7.626-7.626l0,0h17.441c4.212,0,7.626,3.414,7.626,7.626l0,0l0,0c0,4.204-3.408,7.613-7.613,7.613
		C380.317,465.34,380.313,465.34,380.309,465.34z"/>
	<circle fill="#E0E0E0" cx="362.77" cy="457.726" r="6.389"/>
</g>
<g id="freepik--Sun--inject-3">
	<circle fill="#FF725E" cx="506.221" cy="188.728" r="19.951"/>
	<path fill="#FF725E" d="M503.382,233.343c-0.109,0-0.208-3.672-0.208-8.238c0-4.565,0.099-8.225,0.208-8.225
		c0.213,2.736,0.282,5.481,0.208,8.225C503.664,227.853,503.595,230.603,503.382,233.343z"/>
	<path fill="#FF725E" d="M491.889,212.241c0.098,0-1.774,3.501-4.186,7.675c-2.412,4.174-4.456,7.527-4.554,7.466
		c-0.098-0.062,1.774-3.488,4.187-7.675C489.747,215.521,491.791,212.18,491.889,212.241z"/>
	<path fill="#FF725E" d="M480.09,204.897c-1.457,1.428-3.011,2.753-4.651,3.966c-1.553,1.326-3.188,2.553-4.896,3.672
		c1.457-1.428,3.011-2.753,4.651-3.966C476.741,207.236,478.377,206.009,480.09,204.897z"/>
	<path fill="#FF725E" d="M523.284,225.228c-0.238-0.655-0.415-1.331-0.526-2.02c-0.281-1.224-0.697-2.987-1.224-4.896
		c-0.526-1.91-1.028-3.599-1.407-4.823c-0.256-0.652-0.444-1.329-0.563-2.02c0.349,0.609,0.632,1.253,0.845,1.922
		c0.453,1.224,1.016,2.901,1.53,4.81c0.514,1.91,0.868,3.672,1.089,4.896C523.188,223.796,523.274,224.511,523.284,225.228z"/>
	<path fill="#FF725E" d="M543.518,210.87c-2.054-1.524-4.023-3.159-5.9-4.896c-1.966-1.626-3.841-3.359-5.618-5.19
		c2.054,1.524,4.023,3.159,5.9,4.896C539.865,207.307,541.74,209.039,543.518,210.87z"/>
	<path fill="#FF725E" d="M551.266,191.139c-0.824-0.051-1.643-0.165-2.448-0.343c-1.481-0.245-3.525-0.563-5.79-0.82
		c-2.264-0.257-4.333-0.417-5.826-0.514c-0.82-0.002-1.639-0.071-2.448-0.208c0.812-0.11,1.632-0.139,2.448-0.085
		c1.506,0,3.587,0.135,5.863,0.392c2.276,0.257,4.333,0.625,5.802,0.942C549.684,190.641,550.486,190.854,551.266,191.139z"/>
	<path fill="#FF725E" d="M551.29,171.739c0,0.123-4.284,1.224-9.646,2.57s-9.719,2.264-9.792,2.154
		c-0.073-0.11,4.296-1.224,9.646-2.558C546.847,172.571,551.266,171.628,551.29,171.739z"/>
	<path fill="#FF725E" d="M528.768,149.144c0.086,0-1.971,3.354-4.614,7.344s-4.896,7.197-4.97,7.124
		c-0.073-0.073,1.971-3.354,4.615-7.344C525.333,153.81,526.992,151.433,528.768,149.144z"/>
	<path fill="#FF725E" d="M506.381,144.419c0.064,0.913,0.064,1.829,0,2.742c0,1.689,0,4.015,0,6.585s0,4.896,0.073,6.609
		c0.064,0.909,0.064,1.821,0,2.729c-0.174-0.896-0.268-1.805-0.281-2.717c-0.098-1.689-0.184-4.027-0.184-6.609
		s0.073-4.896,0.172-6.61C506.151,146.234,506.226,145.32,506.381,144.419z"/>
	<path fill="#FF725E" d="M489.44,165.509c-0.098,0.061-2.203-3.195-4.688-7.271c-2.484-4.076-4.443-7.442-4.345-7.503
		c0.098-0.061,2.203,3.207,4.7,7.344C487.604,162.216,489.6,165.459,489.44,165.509z"/>
	<path fill="#FF725E" d="M479.318,174.113c-0.716-0.029-1.427-0.14-2.117-0.331c-1.298-0.281-3.072-0.71-5.019-1.224
		c-1.946-0.514-3.672-1.224-4.896-1.652c-0.685-0.217-1.345-0.504-1.971-0.856c0.707,0.128,1.4,0.325,2.069,0.587
		c1.224,0.392,2.998,0.955,4.896,1.518s3.672,1.053,4.97,1.396C477.956,173.672,478.648,173.861,479.318,174.113z"/>
	<path fill="#FF725E" d="M474.912,189.438c-2.101,0.42-4.227,0.694-6.365,0.82c-2.123,0.273-4.261,0.412-6.401,0.416
		c2.101-0.422,4.227-0.7,6.365-0.832C470.634,189.576,472.771,189.441,474.912,189.438z"/>
</g>
<g id="freepik--plant-2--inject-3">
	<path fill="#455A64" d="M461.301,545.01l17.847,127.137l4.65,0.147C480.836,629.11,477.679,585.071,461.301,545.01z"/>
	<path fill="#455A64" d="M510.886,539.049c-12.473,13.623-17.491,32.461-20.649,50.686c-4.479,25.839-4.896,56.365-3.537,82.56
		l6.512,0.146C490.63,627.26,496.627,581.999,510.886,539.049z"/>
	<path fill="#455A64" d="M464.581,620.225c-1.432-6.304-3.072-12.705-6.671-18.078c-4.896-7.246-12.766-11.824-20.734-15.398
		c-7.968-3.574-16.328-6.414-23.525-11.358c8.03,13.158,26.243,16.658,35.496,28.972c4.615,6.12,6.536,13.807,8.336,21.261
		c3.953,16.255,6.377,30.318,10.318,46.513h5.287C471.349,654.669,468.508,637.331,464.581,620.225z"/>
	<path fill="#455A64" d="M497.972,672.294c0,0,4.468-50.49,7.785-59.769c3.317-9.277,34.651-34.884,34.357-33.672
		s-23.513,29.229-26.83,35.019c-3.316,5.789-8.996,58.422-8.996,58.422H497.972z"/>
</g>
<g id="freepik--plant-1--inject-3">
	<path fill="#FF725E" d="M349.844,619.49c2.5,0.999,4.485,2.976,5.496,5.472c0.998,2.479,1.417,5.154,1.224,7.821
		c-0.257,5.141-2.815,10.489-5.68,14.773c-4.541-3.477-5.948-9.951-6.463-13.293c-0.808-5.263,0.931-15.275,5.447-14.773"/>
	<path fill="#FF725E" d="M356.404,655.647c-0.787-2.934,0.059-6.063,2.216-8.201c2.169-2.083,5.085-3.203,8.09-3.109
		c1.366-0.09,2.705,0.415,3.673,1.384c0.764,1.077,0.877,2.486,0.293,3.672c-0.576,1.155-1.451,2.136-2.533,2.84
		c-3.574,2.582-7.503,4.418-11.8,3.427"/>
	<path fill="#263238" d="M351.912,671.657c0.001-0.353,0.029-0.705,0.086-1.053c0.086-0.747,0.195-1.714,0.33-2.864
		c0.28-3.189,1.069-6.313,2.338-9.254c1.332-2.941,3.424-5.477,6.059-7.344c0.802-0.543,1.665-0.991,2.571-1.334
		c0.242-0.099,0.492-0.181,0.746-0.245l0.27-0.061c-1.205,0.506-2.356,1.129-3.439,1.86c-2.534,1.893-4.55,4.394-5.863,7.271
		c-1.266,2.904-2.091,5.982-2.448,9.131c-0.184,1.224-0.33,2.179-0.452,2.852C352.079,670.97,352.014,671.318,351.912,671.657z"/>
	<path fill="#263238" d="M349.183,627.226c0.048,0.146,0.077,0.299,0.086,0.453l0.159,1.31c0.146,1.15,0.318,2.791,0.514,4.835
		c0.404,4.088,0.869,9.73,1.225,15.974c0.354,6.242,0.6,11.909,0.697,16.01c0,2.056,0.073,3.672,0.073,4.896v1.322
		c0,0.306,0,0.465,0,0.465c-0.013-0.154-0.013-0.311,0-0.465l-0.061-1.322c0-1.224-0.11-2.827-0.196-4.896
		c-0.171-4.101-0.416-9.792-0.796-15.998c-0.379-6.206-0.808-11.885-1.138-15.974c-0.172-2.007-0.294-3.672-0.392-4.834
		c0-0.539-0.074-0.979-0.099-1.322C349.222,627.529,349.196,627.378,349.183,627.226z"/>
	<path fill="#FF725E" d="M349.171,659.246c-1.456-6.208-5.818-11.331-11.714-13.758c-1.481-0.601-3.391-0.931-4.505,0.22
		c-1.113,1.15-0.722,3.048,0,4.492c2.992,6.137,9.379,9.873,16.194,9.474"/>
	<path fill="#263238" d="M338.461,650.273c0.324,0.082,0.641,0.197,0.942,0.343c0.293,0.123,0.66,0.27,1.064,0.478
		s0.881,0.429,1.371,0.747c0.542,0.311,1.065,0.653,1.566,1.027c0.587,0.418,1.151,0.867,1.689,1.347
		c1.232,1.096,2.337,2.327,3.292,3.672c0.938,1.369,1.71,2.845,2.302,4.395c0.249,0.673,0.462,1.359,0.636,2.057
		c0.158,0.608,0.285,1.226,0.38,1.848c0.087,0.511,0.145,1.025,0.171,1.542c0.031,0.408,0.031,0.817,0,1.225
		c0.031,0.33,0.031,0.661,0,0.991c-0.085,0,0-1.42-0.428-3.672c-0.106-0.611-0.245-1.216-0.416-1.812
		c-0.188-0.685-0.412-1.359-0.674-2.02c-0.596-1.517-1.359-2.962-2.276-4.309c-0.938-1.333-2.012-2.563-3.207-3.672
		c-0.525-0.482-1.077-0.937-1.652-1.358c-0.514-0.417-1.053-0.734-1.53-1.053C339.758,650.861,338.436,650.347,338.461,650.273z"/>
</g>
<g id="freepik--Character--inject-3">
	<path fill="#455A64" d="M134.726,605.06l-34.431,28.237l34.921,42.999c3.904-3.586-5.912-32.534-5.912-32.534l22.803-17.136
		L134.726,605.06z"/>
	<g opacity="0.6">
		<path fill="#FFFFFF" d="M120.368,628.964c-0.954-0.644-2.238-0.47-2.986,0.404c-0.685,0.935-0.518,2.241,0.379,2.974
			c1.022,0.657,2.372,0.465,3.17-0.452c0.609-1.052,0.28-2.397-0.747-3.048"/>
	</g>
	<g opacity="0.6">
		<path fill="#FFFFFF" d="M100.429,633.175l3.464-2.864l31.971,42.644c0,0,0.71,2.596-0.82,3.464L100.429,633.175z"/>
	</g>
	<path fill="#263238" d="M130.087,644.288c-0.208,0.172-1.224-0.808-2.681-1.285c-1.457-0.477-2.84-0.318-2.913-0.587
		c-0.074-0.27,1.395-0.931,3.219-0.307C129.536,642.734,130.319,644.179,130.087,644.288z"/>
	<path fill="#263238" d="M131.886,650.322c-0.159,0.209-1.224-0.403-2.73-0.403c-1.505,0-2.57,0.563-2.729,0.354
		s0.918-1.321,2.742-1.297C130.993,649.001,132.082,650.151,131.886,650.322z"/>
	<path fill="#263238" d="M128.52,657.263c-0.208-0.146,0.612-1.297,2.203-1.689c1.591-0.392,2.84,0.221,2.729,0.441
		c-0.11,0.22-1.224,0.122-2.448,0.465C129.781,656.822,128.752,657.459,128.52,657.263z"/>
	<path fill="#263238" d="M134.848,639.796c-0.257,0.074-0.747-1.126-1.799-2.252s-2.167-1.738-2.081-1.995
		c0.086-0.257,1.567,0,2.779,1.358C134.958,638.267,135.105,639.771,134.848,639.796z"/>
	<path fill="#263238" d="M139.12,634.68c-0.085,0.074-0.881-0.648-1.738-2.166c-0.49-0.89-0.872-1.835-1.138-2.815
		c-0.157-0.578-0.271-1.168-0.343-1.763c-0.057-0.353-0.057-0.712,0-1.064c0.091-0.525,0.512-0.932,1.04-1.004
		c0.469-0.032,0.925,0.164,1.224,0.526c0.224,0.275,0.409,0.58,0.551,0.905c0.26,0.552,0.469,1.125,0.625,1.714
		c0.264,0.989,0.368,2.014,0.306,3.036c0.049,0.951-0.204,1.893-0.722,2.692c-0.134,0,0.123-1.053,0-2.692
		c-0.038-0.951-0.199-1.894-0.477-2.804c-0.168-0.529-0.376-1.045-0.625-1.542c-0.245-0.551-0.563-0.942-0.856-0.894
		c-0.294,0.049-0.147,0-0.208,0.245c-0.035,0.256-0.035,0.515,0,0.771c0.061,0.56,0.151,1.115,0.27,1.665
		c0.213,0.936,0.512,1.85,0.894,2.729C138.383,633.008,138.784,633.83,139.12,634.68z"/>
	<path fill="#263238" d="M138.606,634.606c-0.098,0,0.318-1.077,1.616-2.265c0.768-0.68,1.645-1.226,2.595-1.615
		c0.565-0.228,1.151-0.399,1.75-0.515c0.77-0.23,1.604-0.045,2.204,0.49c0.311,0.399,0.363,0.943,0.134,1.396
		c-0.165,0.312-0.371,0.6-0.612,0.856c-0.415,0.48-0.902,0.894-1.444,1.224c-0.903,0.539-1.924,0.846-2.974,0.894
		c-1.799,0.062-2.767-0.611-2.705-0.685c0.88,0.046,1.763,0.046,2.644,0c0.93-0.119,1.823-0.437,2.62-0.931
		c0.46-0.284,0.874-0.64,1.224-1.053c0.404-0.44,0.637-0.905,0.453-1.04c-0.394-0.249-0.875-0.316-1.322-0.184
		c-0.545,0.097-1.081,0.235-1.604,0.416c-0.874,0.329-1.698,0.777-2.448,1.334C139.328,633.835,138.728,634.68,138.606,634.606z"/>
	<path fill="#455A64" d="M119.132,628.119l0.416,44.505l55.398-0.232c-0.343-5.288-29.058-15.802-29.058-15.802l0.906-28.531
		L119.132,628.119z"/>
	<g opacity="0.6">
		<path fill="#FFFFFF" d="M128.752,654.264c-1.104,0.342-1.774,1.46-1.554,2.595c0.305,1.115,1.428,1.797,2.558,1.555
			c1.145-0.387,1.836-1.551,1.628-2.741c-0.436-1.135-1.688-1.724-2.84-1.334"/>
	</g>
	<g opacity="0.6">
		<path fill="#FFFFFF" d="M119.536,672.478v-4.505l53.281,1.812c0,0,2.448,1.077,2.179,2.815L119.536,672.478z"/>
	</g>
	<path fill="#263238" d="M146.794,656.333c0,0.269-1.359,0.403-2.693,1.224s-2.032,2.02-2.277,1.909
		c-0.245-0.11,0.147-1.664,1.775-2.705C145.228,655.721,146.88,656.088,146.794,656.333z"/>
	<path fill="#263238" d="M152.608,658.707c0,0.27-1.102,0.734-2.02,1.885s-1.224,2.351-1.444,2.351c-0.221,0-0.441-1.542,0.722-2.95
		C151.029,658.585,152.608,658.45,152.608,658.707z"/>
	<path fill="#263238" d="M155.938,665.659c-0.245,0-0.624-1.297,0-2.778c0.625-1.48,1.958-2.081,2.069-1.86
		c0.11,0.221-0.661,1.028-1.224,2.252C156.219,664.497,156.207,665.623,155.938,665.659z"/>
	<path fill="#263238" d="M146.28,649.809c-0.123,0.245-1.359-0.122-2.889,0s-2.717,0.6-2.864,0.367s1.004-1.224,2.803-1.31
		S146.403,649.588,146.28,649.809z"/>
	<path fill="#263238" d="M144.921,643.248c-0.905,0.249-1.861,0.249-2.766,0c-1.596-0.282-3.124-0.864-4.504-1.714
		c-0.312-0.174-0.596-0.393-0.844-0.648c-0.353-0.403-0.402-0.988-0.123-1.444c0.279-0.397,0.738-0.632,1.224-0.624
		c0.352-0.001,0.702,0.048,1.04,0.146c1.602,0.369,3.082,1.146,4.296,2.252c1.285,1.225,1.738,2.191,1.64,2.24
		c-0.098,0.049-0.747-0.747-2.068-1.726c-0.751-0.568-1.574-1.033-2.448-1.384c-0.52-0.206-1.056-0.37-1.604-0.489
		c-0.587-0.146-1.077-0.146-1.224,0.11s0,0.135,0.073,0.306c0.177,0.19,0.384,0.352,0.612,0.478c0.475,0.303,0.965,0.58,1.469,0.832
		c0.863,0.423,1.765,0.763,2.692,1.017C143.246,642.76,144.092,642.977,144.921,643.248z"/>
	<path fill="#263238" d="M144.579,643.627c-0.098,0-0.637-0.918-0.747-2.68c-0.051-1.025,0.073-2.053,0.367-3.036
		c0.177-0.584,0.411-1.15,0.698-1.688c0.3-0.747,0.969-1.281,1.763-1.408c0.527-0.016,1.01,0.289,1.224,0.771
		c0.14,0.325,0.239,0.666,0.293,1.016c0.244,1.68-0.197,3.386-1.224,4.737c-1.077,1.444-2.204,1.774-2.228,1.677
		c-0.024-0.099,0.845-0.661,1.665-2.044c0.481-0.793,0.778-1.685,0.869-2.607c0.079-0.531,0.079-1.072,0-1.604
		c-0.098-0.588-0.318-1.064-0.539-1.004c-0.22,0.062-0.747,0.44-0.967,0.918c-0.271,0.481-0.5,0.985-0.686,1.506
		c-0.305,0.893-0.482,1.824-0.526,2.767C144.432,642.575,144.726,643.591,144.579,643.627z"/>
	<path fill="#263238" d="M123.881,370.186c0,0-7.772,8.311-11.579,16.279s-6.254,26.928-6.254,26.928s-10.722,23.881-9.094,36.097
		c1.628,12.215,12.546,95.839,12.546,95.839s-0.539,81.225,7.197,95.704l1.726,7.821l31.237-5.605l0,0l-0.196-4.688l7.344-159.268
		l18.801-108.434L123.881,370.186z"/>
	<path fill="#263238" d="M192.805,393.87c0,0,18.666,102.816,20.318,120.649c1.652,17.834-61.922,111.936-61.922,111.936
		l-29.058-30.27l41.714-77.541l-13.562-78.152l18.862-69.046l19.804,0.698L192.805,393.87z"/>
	<path fill="#455A64" d="M111.849,615.732c0.032,0.763,0.105,1.522,0.22,2.276c0.196,1.493,0.563,3.672,1.077,6.512
		c1.041,5.655,2.729,13.855,4.994,24.101v0.221h0.22l31.249-5.483h0.233v-0.245c0.869-21.433,1.909-47.051,3.023-74.529
		c1.151-29.56,2.215-56.978,3.097-79.462l0,0c2.338-18.066,4.272-33.048,5.63-43.465c0.649-5.189,1.163-9.266,1.518-12.08
		c0.159-1.371,0.293-2.448,0.379-3.171c0.085-0.722,0.098-1.089,0.098-1.089s-0.073,0.354-0.184,1.077
		c-0.11,0.722-0.269,1.799-0.465,3.157c-0.392,2.804-0.955,6.879-1.677,12.057c-1.371,10.367-3.366,25.337-5.814,43.416l0,0
		c-0.906,22.484-2.02,49.902-3.219,79.462c-1.077,27.479-2.081,53.097-2.913,74.529l0.245-0.282l-31.212,5.619l0.257,0.171
		c-2.326-10.232-4.076-18.421-5.189-24.052c-0.551-2.827-0.955-5.006-1.224-6.487c-0.135-0.734-0.208-1.297-0.257-1.677
		C111.916,616.114,111.888,615.923,111.849,615.732z"/>
	<path fill="#455A64" d="M75.582,327.64c0,0,19.339-41.689,23.905-43.905s17.687-2.962,19.461-0.465l-34.664,49.915L75.582,327.64z"
		/>
	<path fill="#455A64" d="M76.585,322.009c-0.854-0.473-1.855-0.604-2.803-0.367l0,0c-6.01,1.493-27.968,7.344-30.417,13.623
		c-2.839,7.234,14.529,101.237,16.769,103.783c2.24,2.546,36.781-1.726,37.846-5.74c1.064-4.015-11.236-105.337-11.236-105.337
		L76.585,322.009z"/>
	<path fill="#455A64" d="M49.327,386.037c0,0-1.958,0.123-3.904,4.443c-1.946,4.32,1.481,39.4,4.063,42.987
		c2.583,3.586,10.123,4.345,10.123,4.345L49.327,386.037z"/>
	<path fill="#263238" d="M87.822,435.229c-0.069-0.067-0.127-0.146-0.171-0.232l-0.465-0.723c-0.404-0.637-0.942-1.604-1.579-2.889
		c-1.751-3.643-3.078-7.475-3.954-11.42c-1.271-5.843-2.187-11.757-2.742-17.711c-0.71-6.708-1.493-14.076-2.326-21.812
		c-1.665-15.471-3.047-29.499-3.28-39.719c-0.122-5.104,0-9.229,0.135-12.081c0.074-1.42,0.159-2.534,0.232-3.281
		c0-0.342,0.062-0.612,0.086-0.844c-0.013-0.098-0.013-0.196,0-0.294c0.014,0.098,0.014,0.196,0,0.294c0,0.232,0,0.514,0,0.856
		c0,0.796,0,1.897-0.11,3.28c-0.073,2.84-0.11,6.965,0.074,12.057c0.343,10.184,1.799,24.199,3.464,39.67
		c0.808,7.724,1.579,15.092,2.276,21.8c0.522,5.94,1.389,11.846,2.595,17.687c0.831,3.93,2.082,7.758,3.733,11.42
		c0.6,1.285,1.102,2.265,1.469,2.925l0.404,0.747C87.785,435.168,87.834,435.168,87.822,435.229z"/>
	<path fill="#263238" d="M76.806,379.476c-1.352,0.331-2.721,0.588-4.101,0.771c-2.521,0.429-6.01,1.102-9.792,2.044
		c-3.782,0.943-7.197,1.971-9.633,2.767c-1.301,0.486-2.629,0.895-3.978,1.224c0.302-0.221,0.637-0.394,0.991-0.514
		c0.661-0.294,1.628-0.686,2.84-1.139c6.324-2.36,12.894-4.002,19.584-4.896c1.224-0.159,2.313-0.269,3.036-0.306
		C76.105,379.393,76.459,379.409,76.806,379.476z"/>
	<path fill="#263238" d="M48.875,382.157c0.078,0.183,0.127,0.377,0.146,0.575c0.086,0.453,0.184,1.003,0.306,1.665l1.016,6.12
		c0.869,5.177,2.129,12.325,3.672,20.184c1.542,7.858,3.183,14.945,4.382,20.062c0.587,2.448,1.065,4.528,1.432,6.059l0.367,1.652
		c0.056,0.191,0.085,0.389,0.086,0.588c-0.099-0.171-0.169-0.357-0.208-0.551l-0.489-1.628c-0.404-1.408-0.967-3.464-1.628-6.01
		c-1.31-5.092-2.987-12.167-4.565-20.037c-1.579-7.87-2.767-15.043-3.525-20.257c-0.379-2.595-0.661-4.712-0.82-6.12
		c-0.074-0.673-0.135-1.224-0.184-1.689C48.843,382.565,48.847,382.359,48.875,382.157z"/>
	<path fill="#263238" d="M73.44,339.831c-0.053-0.874,0.013-1.751,0.196-2.607c0.62-4.158,1.7-8.234,3.219-12.154
		c0.266-0.833,0.64-1.627,1.114-2.362c0.171,0.073-1.224,3.794-2.448,8.568C74.297,336.048,73.66,339.855,73.44,339.831z"/>
	<path fill="#263238" d="M194.787,250.577c-0.196-3.538-0.636-20.808-0.844-23.378c-0.22-3.583-1.764-6.955-4.333-9.461
		c-2.589-2.538-6.443-3.284-9.792-1.897l0,0c-2.106,0.533-3.765,2.154-4.345,4.248c-7.246,25.704-6.12,53.207-9.302,79.841
		c9.461,1.542,22.191,0.918,31.75,0.416C197.896,279.071,196.097,273.6,194.787,250.577z"/>
	<path fill="#455A64" d="M190.81,286.893c-0.056-0.224-0.081-0.455-0.074-0.686c0-0.514-0.061-1.224-0.098-1.971
		c0-1.799-0.135-4.271-0.221-7.271c-0.134-6.218-0.306-14.688-0.501-23.978c-0.074-4.688-0.147-9.143-0.208-13.207
		c0-2.032,0-3.954-0.062-5.765c0.022-1.639-0.093-3.276-0.343-4.896c-0.293-2.393-1.64-4.529-3.672-5.826
		c-0.756-0.415-1.589-0.673-2.448-0.759c0,0,0,0,0.171,0c0.171-0.019,0.343-0.019,0.514,0c0.672,0.062,1.326,0.258,1.922,0.575
		c0.942,0.5,1.755,1.213,2.375,2.081c0.823,1.152,1.379,2.474,1.628,3.868c0.288,1.662,0.431,3.345,0.428,5.031
		c0,1.812,0.074,3.746,0.123,5.765c0.073,4.063,0.159,8.568,0.257,13.207c0.122,9.327,0.232,17.772,0.318,23.978
		c0,3.011,0,5.471,0,7.271c0,0.808,0,1.457,0,1.983C190.899,286.496,190.863,286.696,190.81,286.893z"/>
	<path fill="#455A64" d="M182.205,277.125c-0.083-0.51-0.119-1.026-0.11-1.542c0-1.004-0.062-2.448-0.062-4.235
		c0-3.574,0.074-8.568,0.208-13.966c0.135-5.397,0.282-10.257,0.392-13.954c0-1.689,0.098-3.109,0.135-4.223
		c-0.011-0.521,0.034-1.042,0.135-1.554c0.083,0.514,0.12,1.034,0.11,1.554c0,0.992,0,2.448,0,4.235
		c0,3.574-0.074,8.568-0.208,13.954c-0.134,5.386-0.293,10.257-0.392,13.954c-0.061,1.689-0.098,3.109-0.134,4.235
		C182.309,276.098,182.285,276.615,182.205,277.125z"/>
	<path fill="#2753E0" d="M119.878,283.735c-1.224,0-24.309,1.64-29.669,26.365c-5.361,24.725-6.903,59.364-6.903,59.364
		l25.031-2.448L119.878,283.735z"/>
	<path fill="#2753E0" d="M131.213,278.264l4.063-7.503l35.496-0.967l2.448,6.389l20.918,7.552l-1.75,92.681l15.496,85.569
		c0,0-0.159,12.351-41.42,16.268l-3.268-44.725l-20.625-0.49l0.563,43.685c0,0-36.402-0.587-47.944-8.825
		c0,0-3.5-41.615,6.438-71.591c8.703-26.243,12.093-33.048,12.093-33.048l0.71-78.642L131.213,278.264z"/>
	<g opacity="0.3">
		<path d="M120.246,284.8c-7.132,30.526-14.271,61.065-21.42,91.616l7.258,7.699c7.591-3.54,12.465-11.135,12.521-19.51
			c0-4.235-1.346-8.36-1.518-12.595c-0.392-9.547,4.896-18.299,7.344-27.54C127.798,311.385,125.337,297.333,120.246,284.8z"/>
	</g>
	<path fill="#2753E0" d="M189.61,282.547c8.568,1.579,15.166,10.637,17.136,20.355c1.139,5.692,4.456,33.134,4.456,33.134
		l1.824,10.062c0,0,1.53,34.578-5.802,38.446c-8.568,4.504-13.464-0.441-16.304-4.064c-2.839-3.623-5.863-27.197-5.863-27.197
		l3.194-56.426L189.61,282.547z"/>
	<path fill="#263238" d="M193.661,296.428c-0.002,0.333-0.035,0.665-0.098,0.991c-0.098,0.694-0.233,1.636-0.404,2.828
		c-0.392,2.448-0.931,6.034-1.604,10.367c-0.673,4.333-1.542,9.608-2.448,15.386c-0.477,2.889-0.967,5.924-1.481,9.07
		s-1.15,6.389-1.42,9.792c-0.165,1.922-0.165,3.855,0,5.777l0,0c2.656,11.885,5.141,22.375,7.014,29.89
		c0.942,3.672,1.701,6.708,2.252,8.849c0.257,0.992,0.465,1.775,0.625,2.375c0.095,0.273,0.157,0.557,0.184,0.844
		c-0.126-0.258-0.225-0.529-0.294-0.808l-0.734-2.35c-0.612-2.057-1.469-5.055-2.448-8.801c-1.982-7.491-4.541-17.98-7.209-29.853
		l0,0c-0.165-1.955-0.165-3.92,0-5.875c0.269-3.403,0.906-6.659,1.432-9.792c0.526-3.133,1.04-6.12,1.518-9.07
		c0.979-5.765,1.86-11.016,2.595-15.361s1.371-7.833,1.812-10.343c0.22-1.163,0.392-2.105,0.526-2.803
		C193.498,297.165,193.559,296.791,193.661,296.428z"/>
	<path fill="#455A64" d="M102.816,289.512l6.487,86.904c0,0,12.142-55.361,12.632-69.523c0.372-8.122-0.453-16.255-2.448-24.137
		C119.487,282.755,107.712,280.858,102.816,289.512z"/>
	<path fill="#263238" d="M99.071,284.004c0.801,0.248,1.54,0.666,2.166,1.224c0.731,0.584,1.279,1.366,1.579,2.252
		c0.345,1.047,0.563,2.132,0.649,3.231c0.208,2.301,0.196,4.382,0.196,5.888c0.052,0.817,0.02,1.637-0.098,2.448
		c-0.243-0.793-0.362-1.619-0.355-2.448c-0.122-1.494-0.171-3.574-0.379-5.839c-0.208-2.264-0.722-4.296-1.824-5.239
		C99.903,284.579,99.009,284.102,99.071,284.004z"/>
	<path fill="#263238" d="M144.089,287.149c0,0-0.282-0.232-0.734-0.759c-0.453-0.526-1.089-1.224-1.885-2.264h0.367
		c-0.881,2.558-2.228,6.267-3.757,10.428l-0.22,0.588l-0.331-0.502c-0.184-0.282-0.404-0.563-0.576-0.857
		c-1.026-1.841-1.875-3.775-2.533-5.777c-0.649-1.824-1.224-3.464-1.641-4.896c-0.416-1.432-0.832-2.448-1.114-3.244
		c-0.168-0.395-0.3-0.804-0.392-1.224c0.266,0.336,0.476,0.712,0.625,1.114c0.355,0.734,0.795,1.836,1.31,3.194
		c0.514,1.359,1.114,3.023,1.763,4.786c0.681,1.952,1.524,3.844,2.521,5.655c0.171,0.282,0.368,0.539,0.539,0.795l-0.551,0.086
		c1.555-4.149,2.962-7.833,3.966-10.355l0.135-0.355l0.232,0.306C142.646,284.909,143.407,286.005,144.089,287.149z"/>
	<path fill="#263238" d="M172.241,281.177c-0.094,0.404-0.238,0.794-0.428,1.163c-0.318,0.734-0.808,1.775-1.42,3.06
		s-1.371,2.803-2.265,4.48c-0.938,1.838-2.009,3.606-3.207,5.288l-0.404,0.551l-0.159-0.673l-0.062-0.282
		c-1.003-4.271-1.873-8.151-2.448-11.016l0.392,0.098c-0.853,0.815-1.793,1.533-2.803,2.142c-0.661,0.478-0.967,0.82-1.004,0.784
		c-0.037-0.037,0.208-0.417,0.845-0.979c0.935-0.676,1.811-1.43,2.619-2.252l0.282-0.331l0.122,0.428
		c0.71,2.803,1.652,6.671,2.656,10.942v0.282l-0.563-0.123c1.173-1.656,2.24-3.386,3.194-5.177l2.375-4.394l1.603-2.975
		C171.75,281.827,171.976,281.486,172.241,281.177z"/>
	<path fill="#FFFFFF" d="M144.701,286.807c0,0-3.439,44.676-4.333,50.429c-0.894,5.752,2.167,95.802,2.167,95.802l20.123,1.298
		c0,0,0.208-74.358,0-74.873c-0.208-0.514,0.098-52.497,0.098-52.497l-4.565-20.71l-7.785,9.217L144.701,286.807z"/>
	<path fill="#263238" d="M167.162,329.28c0,0.098-0.71,0.257-1.065,1.224c-0.209,0.525-0.178,1.115,0.086,1.616
		c0.382,0.557,1.069,0.82,1.726,0.661c0.67-0.076,1.22-0.566,1.371-1.224c0.072-0.562-0.107-1.125-0.49-1.542
		c-0.39-0.392-0.889-0.657-1.432-0.759c0,0,0.159-0.123,0.49-0.123c0.461,0.049,0.892,0.252,1.224,0.575
		c0.542,0.495,0.818,1.216,0.747,1.946c-0.28,1.247-1.517,2.031-2.764,1.751c-0.583-0.13-1.093-0.482-1.422-0.98
		c-0.334-0.658-0.334-1.435,0-2.093c0.201-0.432,0.547-0.778,0.979-0.979C166.966,329.219,167.149,329.243,167.162,329.28z"/>
	<path fill="#263238" d="M167.162,368.276c0,0.098-0.71,0.27-1.065,1.224c-0.209,0.525-0.178,1.115,0.086,1.616
		c0.588,0.775,1.694,0.926,2.47,0.338c0.302-0.229,0.521-0.549,0.627-0.913c0.073-0.562-0.106-1.126-0.49-1.542
		c-0.686-0.771-1.444-0.661-1.432-0.771c0.012-0.11,0.159-0.123,0.49-0.11c0.46,0.043,0.892,0.242,1.224,0.563
		c0.537,0.498,0.813,1.217,0.747,1.946c-0.28,1.247-1.517,2.031-2.764,1.751c-0.583-0.13-1.093-0.482-1.422-0.98
		c-0.333-0.653-0.333-1.427,0-2.081c0.201-0.432,0.547-0.778,0.979-0.979C166.966,368.215,167.149,368.252,167.162,368.276z"/>
	<path fill="#263238" d="M168.912,415.449c0,0.098-0.71,0.27-1.065,1.225c-0.209,0.525-0.178,1.115,0.085,1.615
		c0.589,0.775,1.694,0.927,2.47,0.338c0.302-0.229,0.522-0.549,0.627-0.913c0.074-0.562-0.105-1.126-0.489-1.542
		c-0.686-0.771-1.444-0.661-1.432-0.771s0.159-0.123,0.49-0.11c0.461,0.039,0.894,0.238,1.224,0.563
		c0.547,0.492,0.828,1.214,0.759,1.945c-0.271,1.249-1.504,2.041-2.752,1.769c-0.594-0.13-1.113-0.487-1.446-0.997
		c-0.328-0.654-0.328-1.426,0-2.08c0.201-0.432,0.548-0.779,0.979-0.979C168.753,415.389,168.912,415.425,168.912,415.449z"/>
	<g opacity="0.3">
		<path d="M195.032,328.925c-0.441-3.562-1.383-7.05-1.616-10.637c-0.294-4.284,0.453-8.568-0.392-12.84
			c-2.913,4.896-3.574,10.735-3.586,16.402s0.514,11.359-0.294,16.964c-0.551,3.844-1.799,8.458-2.264,12.313
			c-0.465,3.856,0.636,5.973,1.763,11.763C192.523,351.936,196.452,340.467,195.032,328.925z"/>
	</g>
	<path fill="#2753E0" d="M188.239,319.818c4.686,13.393,2.824,28.208-5.03,40.024"/>
	<path fill="#263238" d="M183.208,359.843c-0.11-0.074,1.224-2.007,2.839-5.41c0.932-1.983,1.725-4.028,2.375-6.12
		c0.77-2.583,1.334-5.223,1.689-7.895c0.313-2.676,0.419-5.373,0.318-8.066c-0.105-2.198-0.362-4.386-0.771-6.548
		c-0.722-3.672-1.542-5.9-1.42-5.949c0.266,0.486,0.479,0.999,0.637,1.53c0.184,0.502,0.392,1.114,0.587,1.836
		s0.465,1.554,0.637,2.448c0.477,2.18,0.783,4.394,0.918,6.622c0.325,5.465-0.364,10.942-2.032,16.157
		c-0.689,2.101-1.536,4.146-2.533,6.12c-0.404,0.869-0.857,1.604-1.224,2.252c-0.318,0.564-0.666,1.112-1.041,1.64
		C183.911,358.954,183.583,359.418,183.208,359.843z"/>
	<path fill="#263238" d="M127.443,378.864c-0.859-0.532-1.649-1.169-2.35-1.897c-3.577-3.316-6.715-7.076-9.339-11.188
		c-0.599-0.823-1.088-1.72-1.457-2.668c0.677,0.761,1.288,1.581,1.824,2.448c1.089,1.505,2.619,3.562,4.431,5.741
		s3.562,4.039,4.896,5.385C126.172,377.354,126.84,378.083,127.443,378.864z"/>
	<path fill="#263238" d="M119.389,380.149c-0.518-0.704-0.93-1.479-1.224-2.301c-1.723-3.854-2.957-7.908-3.672-12.069
		c-0.21-0.852-0.297-1.73-0.257-2.607c0.184,0,0.894,3.88,2.326,8.568S119.561,380.088,119.389,380.149z"/>
	<path fill="#263238" d="M158.753,356.832c0,0.085-0.747-0.392-1.958-0.869c-3.203-1.25-6.799-0.994-9.792,0.698
		c-1.126,0.649-1.726,1.224-1.812,1.126c0.396-0.623,0.938-1.14,1.579-1.505c1.488-0.993,3.209-1.58,4.994-1.701
		c1.782-0.137,3.569,0.201,5.178,0.979C157.64,355.829,158.262,356.266,158.753,356.832z"/>
	<path fill="#FFBE9D" d="M90.796,353.931c0,0-8.997,9.792-8.311,16.622c0.686,6.83,3.868,21.86,12.24,21.408
		c8.372-0.453,16.046-14.003,17.136-24.75s0-36.035,0-36.035l-12.007,2.705L90.796,353.931z"/>
	<path fill="#263238" d="M72.926,291.262c6.218,7.944,21.628,27.1,21.628,27.1l14.504-3.672c1.06-0.265,1.848-1.155,1.983-2.24l0,0
		c0.086-0.7-0.112-1.406-0.551-1.958L90.16,284.787c-1.557-1.979-4.216-2.722-6.573-1.836l-9.29,3.489
		c-1.613,0.609-2.426,2.41-1.816,4.023C72.589,290.75,72.739,291.019,72.926,291.262z"/>
	<path fill="#455A64" d="M109.499,311.434c-0.5-0.407-0.966-0.853-1.396-1.334c-0.869-0.906-2.105-2.215-3.586-3.868
		c-2.962-3.317-6.928-8.03-11.016-13.464c-1.016-1.358-1.995-2.692-2.925-4.002c-0.77-1.282-1.805-2.384-3.036-3.231
		c-1.211-0.563-2.608-0.563-3.819,0l-3.427,1.224l-5.006,1.652c-0.602,0.233-1.225,0.41-1.86,0.526
		c0.572-0.297,1.165-0.551,1.775-0.759l4.896-1.848l3.415-1.224c0.655-0.245,1.337-0.409,2.032-0.489
		c0.776-0.064,1.554,0.097,2.24,0.465c1.325,0.872,2.441,2.025,3.268,3.378l2.925,3.99c4.064,5.422,7.956,10.159,10.833,13.537
		c1.383,1.628,2.546,2.975,3.427,4.003C108.696,310.437,109.118,310.919,109.499,311.434z"/>
	<path fill="#FFFFFF" d="M81.164,288.594c0.606-0.298,1.34-0.048,1.639,0.558c0.298,0.606,0.048,1.34-0.558,1.639
		s-1.34,0.049-1.639-0.558c-0.001-0.003-0.003-0.007-0.005-0.011C80.31,289.617,80.561,288.891,81.164,288.594"/>
	<path fill="#FFBE9D" d="M93.599,305.962l-6.708,1.114l-2.448,2.204c-0.703,0.607-1.053,1.527-0.93,2.448
		c0.19,1.206,0.716,2.334,1.518,3.256c0.864,1.072,1.841,2.049,2.913,2.913c0,0-2.35,3.819,1.297,5.753c0,0-0.245,3.954,3.586,4.357
		c0,0,1.114,3.758,4.002,3.966l2.975,2.95l-0.906,1.799l13.305,0.416c0.067-3.549-0.108-7.099-0.526-10.624
		c-0.226-1.435-0.574-2.848-1.041-4.223c0.673-3.745-2.129-5.312-2.558-5.042c0,0,6.353-1.665,5.545-6.035l-6.12,1.567
		l-11.175,2.326l7.173-4.786c0.355-0.326,0.668-0.696,0.93-1.102c0.612-0.967,1.518-2.717,0.747-3.745
		c-0.331-0.429-9.143,3.256-9.143,3.256l-5.459,5.03l-1.714-2.448C88.862,311.312,94.48,310.161,93.599,305.962z"/>
	<path fill="#EB996E" d="M108.936,317.297c0,0.196-2.362,0.526-5.19,1.358c-2.827,0.833-5.03,1.799-5.116,1.628
		c1.469-1.062,3.132-1.823,4.896-2.24C105.261,317.435,107.101,317.181,108.936,317.297z"/>
	<path fill="#EB996E" d="M105.864,328.814c0.8-0.728,1.541-1.517,2.215-2.362l0.232-0.306l0.159,0.355
		c0.22,0.468,0.609,0.835,1.089,1.028c0.514,0.257,1.125,0.22,1.604-0.098c0.208-0.161,0.296-0.434,0.22-0.686l-0.184-1.102
		c-0.092-0.766-0.243-1.522-0.453-2.265c-0.207-0.647-0.814-1.081-1.493-1.064c-0.692,0.03-1.376,0.158-2.032,0.379l-3.586,0.881
		c-1.091,0.319-2.21,0.536-3.342,0.648c1.043-0.457,2.125-0.821,3.231-1.089l3.525-1.003c0.715-0.264,1.467-0.413,2.228-0.441
		c0.436,0.009,0.859,0.141,1.224,0.379c0.37,0.276,0.65,0.655,0.808,1.089c0.221,0.782,0.381,1.58,0.478,2.387
		c0,0.379,0.11,0.759,0.171,1.126c0.092,0.466-0.094,0.943-0.478,1.224c-0.65,0.433-1.484,0.48-2.179,0.123
		c-0.56-0.283-0.996-0.762-1.224-1.346h0.379c-0.512,0.642-1.114,1.206-1.787,1.677C106.17,328.68,105.888,328.852,105.864,328.814z
		"/>
	<path fill="#EB996E" d="M94.101,310.32c-0.886,1.382-1.885,2.688-2.986,3.905c-0.93,1.352-1.974,2.622-3.122,3.794
		c0.622-1.522,1.495-2.929,2.583-4.162C91.533,312.479,92.726,311.282,94.101,310.32z"/>
	<path fill="#EB996E" d="M96.867,314.935c0,0.184-1.395,0.624-2.448,2.056c-0.55,0.909-0.963,1.895-1.224,2.925
		c-0.085,0-0.208-0.367-0.184-1.003c0.154-1.69,1.22-3.16,2.778-3.831C96.451,314.861,96.843,314.861,96.867,314.935z"/>
	<path fill="#263238" d="M168.667,216.329c-1.028-2.693-0.624-5.691-1.028-8.568c-0.881-6.279-5.937-11.322-11.787-13.782
		c-5.447-2.277-12.093-1.787-18.654,0.318c-4.557,1.376-8.628,4.021-11.738,7.625c-4.021,4.96-5.39,11.562-3.672,17.711
		l32.142-4.639c2.999,2.448,6.12,5.03,9.731,6.426c1.052,0.469,2.208,0.654,3.354,0.539c1.144-0.157,2.096-0.957,2.448-2.056
		C169.83,218.691,169.12,217.504,168.667,216.329z"/>
	<path fill="#263238" d="M148.691,192.375c7.038-1.224,13.219,1.53,19.144,5.508c5.916,4.088,10.439,9.888,12.962,16.622
		c2.705,7.013,3.391,17.136,1.224,24.37c-1.896,6.894-7.042,12.424-13.782,14.811c-9.669,3.427-20.808,2.999-29.033-3.195
		c-8.225-6.193-12.852-16.438-13.231-26.695c-0.361-7.12,1.528-14.172,5.398-20.159c3.942-5.984,10.193-10.063,17.258-11.261"/>
	<path fill="#FFBE9D" d="M137.517,268.912l0.257,5.729l12.632,22.338l18.36-23.501l0.624-58.752
		c-0.051-2.722-2.179-4.951-4.896-5.128l-28.042-5.985c-8.936-0.6-14.443,10.575-14.688,19.584
		c-0.245,9.951-0.171,22.105,1.224,29.461c2.926,14.798,14.407,16.267,14.407,16.267"/>
	<path fill="#263238" d="M125.852,235.521c0.02,1.038,0.871,1.867,1.91,1.86c1.013,0.041,1.868-0.748,1.908-1.761
		c0-0.013,0.001-0.026,0.001-0.039c-0.039-1.028-0.881-1.842-1.909-1.848c-1.006-0.047-1.86,0.729-1.908,1.736
		C125.853,235.487,125.852,235.504,125.852,235.521z"/>
	<path fill="#263238" d="M124.701,228.924c0.245,0.245,1.652-0.881,3.672-0.955c2.02-0.073,3.599,0.894,3.807,0.637
		c0.208-0.257-0.147-0.551-0.832-1.004c-0.909-0.588-1.979-0.875-3.06-0.82c-1.067,0.034-2.096,0.407-2.938,1.064
		C124.774,228.312,124.579,228.814,124.701,228.924z"/>
	<path fill="#263238" d="M144.493,235.167c0.027,1.04,0.881,1.867,1.922,1.86c1.006,0.041,1.855-0.742,1.896-1.749
		c0-0.013,0.001-0.025,0.001-0.039c-0.02-1.038-0.871-1.867-1.909-1.86c-1.006-0.047-1.86,0.729-1.908,1.736
		C144.494,235.132,144.494,235.149,144.493,235.167z"/>
	<path fill="#263238" d="M144.212,228.447c0.245,0.245,1.652-0.881,3.672-0.955c2.02-0.074,3.672,0.905,3.819,0.636
		s-0.147-0.551-0.833-1.004c-0.908-0.588-1.979-0.875-3.06-0.82c-1.067,0.034-2.096,0.407-2.938,1.065
		C144.285,227.884,144.089,228.312,144.212,228.447z"/>
	<path fill="#263238" d="M138.018,244.065c-1.094-0.298-2.22-0.458-3.354-0.478c-0.526,0-1.028-0.122-1.126-0.477
		c-0.068-0.54,0.035-1.088,0.293-1.567l1.396-4.051c1.946-5.765,3.329-10.502,3.097-10.576c-0.232-0.073-1.995,4.529-3.941,10.306
		l-1.334,4.076c-0.303,0.646-0.372,1.377-0.196,2.068c0.173,0.366,0.501,0.635,0.894,0.734c0.293,0.067,0.593,0.096,0.894,0.086
		C135.767,244.296,136.902,244.255,138.018,244.065z"/>
	<path fill="#EB996E" d="M137.517,268.912c7.03-0.472,13.824-2.725,19.743-6.548c0,0-4.626,10.49-19.584,9.657L137.517,268.912z"/>
	<path fill="#EB996E" d="M139.597,248.483c0.758-0.833,1.889-1.221,2.999-1.028c0.794,0.074,1.502,0.531,1.897,1.224
		c0.576,0.842,0.646,1.931,0.184,2.84c-0.64,0.79-1.703,1.102-2.668,0.783c-0.889-0.203-1.724-0.595-2.448-1.15
		c-0.233-0.226-0.396-0.515-0.465-0.833c-0.099-0.662,0.108-1.333,0.563-1.824"/>
	<path fill="#263238" d="M144.334,223.636c0.22,0.551,2.265,0.208,4.676,0.417c2.411,0.208,4.406,0.783,4.7,0.269
		c0.135-0.245-0.22-0.759-1.028-1.224c-1.067-0.638-2.271-1.012-3.513-1.089c-1.252-0.104-2.512,0.093-3.672,0.575
		C144.665,222.914,144.236,223.416,144.334,223.636z"/>
	<path fill="#263238" d="M124.958,219.916c0.379,0.453,1.775-0.086,3.476-0.171c1.702-0.086,3.158,0.196,3.464-0.306
		c0.134-0.232-0.11-0.698-0.747-1.114c-1.773-1.02-3.986-0.87-5.605,0.379C124.97,219.206,124.848,219.744,124.958,219.916z"/>
	<path fill="#263238" d="M173.808,212.008c-2.901-8.568-15.582-20.208-24.578-19.413l-14.21,8.886
		c1.045,4.979,4.733,8.986,9.608,10.441c2.558,0.722,5.618,0.881,7.172,3.035c1.555,2.154,0.747,5.472,2.228,7.748
		c2.044,3.158,7.479,2.901,9.045,6.328c0.673,1.493,0.367,3.292,1.077,4.786c0.943,1.971,6.035,4.407,8.115,3.672
		c2.081-0.734,2.007-4.26,2.656-6.12c0.819-2.117,0.883-4.451,0.184-6.61C174.126,220.588,175.203,216.072,173.808,212.008z"/>
	<path fill="#FFBE9D" d="M166.146,239.401c0-1.114,1.15-3.77,2.24-3.99c2.901-0.563,8.176-0.526,8.568,6.903
		c0.453,10.147-9.792,8.495-9.865,8.213C167.015,250.246,166.28,243.232,166.146,239.401z"/>
	<path fill="#EB996E" d="M169.965,246.537c0,0,0.184,0.123,0.477,0.245c0.427,0.177,0.907,0.177,1.334,0
		c1.052-0.441,1.873-2.179,1.848-4.002c-0.008-0.873-0.218-1.731-0.612-2.509c-0.215-0.637-0.734-1.124-1.383-1.297
		c-0.425-0.1-0.86,0.123-1.028,0.526c-0.123,0.293,0,0.489-0.098,0.501c-0.098,0.013-0.233-0.159-0.159-0.575
		c0.039-0.257,0.169-0.492,0.367-0.661c0.271-0.221,0.619-0.327,0.967-0.294c0.855,0.125,1.582,0.693,1.91,1.493
		c0.47,0.861,0.726,1.822,0.747,2.803c0,2.044-0.943,4.002-2.448,4.492c-0.544,0.185-1.143,0.112-1.628-0.196
		C169.989,246.782,169.928,246.562,169.965,246.537z"/>
	<path fill="#FF725E" d="M183.013,225.521c0.307-0.985,0.439-2.017,0.392-3.048c0.027-5.018-1.627-9.901-4.7-13.868
		c-0.584-0.847-1.309-1.587-2.142-2.191c-0.196,0.123,3.207,3.5,4.994,8.948C182.562,218.653,183.053,222.08,183.013,225.521z"/>
	<path fill="#263238" d="M137.981,198.422c-0.942,4.125-7.222,9.413-9.988,12.632c-5.263,6.12-6.254,7.025-6.218,25.521
		c-2.723-5.741-4.164-12.006-4.223-18.36c0.124-5.403,2.217-10.574,5.888-14.541c3.75-3.94,9.139-5.882,14.541-5.239"/>
	<path fill="#455A64" d="M178.985,211.874c-0.555,0.203-1.129,0.346-1.713,0.429c-0.563,0.122-1.224,0.257-2.056,0.355
		c-0.833,0.098-1.726,0.269-2.754,0.318c-2.392,0.175-4.793,0.175-7.185,0c-2.936-0.212-5.85-0.658-8.715-1.334
		c-2.856-0.716-5.648-1.666-8.348-2.84c-2.199-0.966-4.322-2.096-6.353-3.378c-0.894-0.514-1.628-1.077-2.289-1.542
		c-0.576-0.379-1.131-0.787-1.665-1.224c-0.476-0.373-0.922-0.782-1.334-1.224c0.522,0.281,1.018,0.608,1.481,0.979
		c0.453,0.343,1.016,0.747,1.701,1.224c0.686,0.477,1.432,0.967,2.326,1.457c2.041,1.222,4.163,2.302,6.353,3.231
		c2.668,1.16,5.422,2.114,8.237,2.852c2.819,0.667,5.683,1.125,8.568,1.371c2.37,0.178,4.75,0.198,7.124,0.061
		c1.016,0,1.934-0.159,2.729-0.22c0.795-0.061,1.493-0.171,2.056-0.257C177.753,211.996,178.368,211.91,178.985,211.874z"/>
	<path fill="#455A64" d="M180.038,219.156c-0.394,0.146-0.806,0.241-1.224,0.282c-1.08,0.203-2.171,0.342-3.268,0.416
		c-7.297,0.536-14.604-0.906-21.15-4.174c-0.989-0.483-1.949-1.023-2.876-1.616c-0.357-0.195-0.687-0.438-0.979-0.722
		c0-0.085,1.53,0.808,4.04,1.958c6.556,3.014,13.733,4.427,20.942,4.125C178.325,219.315,180.026,219.046,180.038,219.156z"/>
	<path fill="#455A64" d="M182.608,219.401c0.175,0.494,0.291,1.008,0.343,1.53c0.159,1.004,0.318,2.448,0.416,4.248
		c0.11,2.108,0.11,4.22,0,6.328c-0.096,2.59-0.444,5.164-1.04,7.687c-1.195,4.635-3.981,8.703-7.871,11.493
		c-1.181,0.807-2.444,1.483-3.77,2.02c-0.471,0.228-0.969,0.396-1.481,0.502c0.44-0.279,0.903-0.521,1.383-0.722
		c1.264-0.612,2.472-1.333,3.611-2.154c1.67-1.235,3.125-2.736,4.309-4.443c1.489-2.061,2.581-4.381,3.219-6.842
		c0.579-2.489,0.939-5.024,1.077-7.577c0.147-2.362,0.171-4.492,0.135-6.279s-0.123-3.231-0.22-4.223
		C182.635,220.45,182.598,219.926,182.608,219.401z"/>
	<path fill="#263238" d="M142.131,252.278c0.549,0.005,1.092-0.125,1.579-0.379c0.482-0.297,0.813-0.788,0.906-1.346
		c0.111-0.685-0.086-1.384-0.539-1.91c-0.476-0.51-1.128-0.821-1.824-0.869c-0.586-0.035-1.17,0.092-1.689,0.367
		c-0.906,0.478-1.224,1.065-1.371,1.004s0.184-0.734,1.138-1.396c0.575-0.385,1.255-0.582,1.946-0.563
		c0.87,0.02,1.692,0.396,2.276,1.041c0.586,0.67,0.822,1.577,0.637,2.448c-0.136,0.702-0.587,1.302-1.224,1.628
		C142.816,252.792,142.07,252.327,142.131,252.278z"/>
	<path fill="#FFBE9D" d="M204.738,335.853l5.459-11.64c0.906-3.672,4.602-4.896,9.131-5.19l4.786-1.958c0,0,3.489-5.031,6.72-4.896
		c0.52,0.018,0.971,0.361,1.126,0.856l0,0c0.11,0.333,0.061,0.7-0.135,0.992l-3.929,6.046l-3.133,1.542c0,0,2.938,0.71,4.101-0.38
		c1.163-1.089,5.092-4.198,5.092-4.198s2.999-5.397,6.891-4.994c0.39,0.035,0.678,0.38,0.643,0.771
		c-0.008,0.095-0.036,0.186-0.08,0.27l-2.987,5.765c0,0,5.447-8.188,10.637-5.128l-5.753,6.255c0,0,8.348-4.737,11.677-0.771
		l-21.126,8.727l-12.179,2.387l-4.26,11.554l-3.745-2.167L204.738,335.853z"/>
	<path fill="#FFBE9D" d="M217.395,350.969c0,0,0.649,20.686-3.17,26.389c-3.819,5.704-10.918,13.464-19.707,7.246l-5.496-20.808
		c0,0,8.947-9.792,10.575-13.831c4.051-10.024,10.6-25.704,10.6-25.704l11.653,5.19L217.395,350.969z"/>
	<path fill="#EB996E" d="M200.919,348.068c-0.36,0.911-0.803,1.788-1.322,2.619c-0.857,1.579-2.007,3.782-3.146,6.279
		c-1.139,2.497-2.057,4.81-2.705,6.499c-0.283,0.936-0.656,1.842-1.114,2.705c0.114-0.976,0.349-1.933,0.697-2.852
		c0.699-2.256,1.545-4.464,2.534-6.61c0.984-2.151,2.1-4.24,3.342-6.254C199.679,349.593,200.254,348.792,200.919,348.068z"/>
	<path fill="#EB996E" d="M227.896,320.002c-0.837,0.733-1.804,1.302-2.852,1.677c-0.956,0.563-2.011,0.937-3.109,1.102
		c0.833-0.731,1.797-1.3,2.84-1.677C225.736,320.541,226.795,320.167,227.896,320.002z"/>
	<path fill="#EB996E" d="M229.647,325.473c0-0.086,0.551-0.453,1.542-0.881l1.763-0.722l1.016-0.428
		c0.339-0.129,0.639-0.344,0.869-0.625c1.065-1.224,1.934-2.448,2.632-3.268c0.698-0.82,1.224-1.334,1.285-1.224
		c-0.069,0.143-0.147,0.282-0.232,0.416l-0.686,1.077c-0.767,1.197-1.614,2.342-2.534,3.427c-0.148,0.17-0.312,0.326-0.49,0.465
		c-0.184,0.124-0.381,0.226-0.587,0.306l-1.065,0.404c-0.673,0.245-1.297,0.429-1.812,0.6
		C230.802,325.24,230.23,325.392,229.647,325.473z"/>
</g>
</svg>
